<mxfile host="app.diagrams.net" modified="2023-08-08T10:57:49.432Z" agent="Mozilla/5.0 (Windows NT 10.0; Win64; x64) AppleWebKit/537.36 (KHTML, like Gecko) Chrome/115.0.0.0 Safari/537.36" etag="JvOxVGI_PpAB5-b3axRF" version="21.6.2" type="github">
  <diagram name="第 1 页" id="O3S1kndeIeVUOSqr3HUG">
    <mxGraphModel dx="1687" dy="904" grid="1" gridSize="10" guides="1" tooltips="1" connect="1" arrows="1" fold="1" page="1" pageScale="1" pageWidth="827" pageHeight="1169" math="0" shadow="0">
      <root>
        <mxCell id="0" />
        <mxCell id="1" parent="0" />
        <mxCell id="20j8uFJAiAJIcvfE-GCa-62" value="" style="rounded=0;whiteSpace=wrap;html=1;fillColor=#dae8fc;strokeColor=#6c8ebf;" vertex="1" parent="1">
          <mxGeometry x="120" y="270" width="690" height="570" as="geometry" />
        </mxCell>
        <mxCell id="20j8uFJAiAJIcvfE-GCa-51" style="edgeStyle=orthogonalEdgeStyle;rounded=0;orthogonalLoop=1;jettySize=auto;html=1;strokeWidth=5;strokeColor=#f01505;" edge="1" parent="1">
          <mxGeometry relative="1" as="geometry">
            <mxPoint x="668.8199999999999" y="140" as="targetPoint" />
            <mxPoint x="668.8199999999999" y="260" as="sourcePoint" />
          </mxGeometry>
        </mxCell>
        <mxCell id="20j8uFJAiAJIcvfE-GCa-52" value="消息推送" style="edgeLabel;html=1;align=center;verticalAlign=middle;resizable=0;points=[];fontFamily=仿宋;fontSize=20;fontStyle=1" vertex="1" connectable="0" parent="20j8uFJAiAJIcvfE-GCa-51">
          <mxGeometry x="0.1546" y="3" relative="1" as="geometry">
            <mxPoint as="offset" />
          </mxGeometry>
        </mxCell>
        <mxCell id="20j8uFJAiAJIcvfE-GCa-22" value="消息队列" style="rounded=1;whiteSpace=wrap;html=1;horizontal=1;fontFamily=仿宋;fontSize=20;fontStyle=1;fillColor=#fff2cc;strokeColor=#d6b656;" vertex="1" parent="1">
          <mxGeometry x="930" y="310" width="120" height="460" as="geometry" />
        </mxCell>
        <mxCell id="20j8uFJAiAJIcvfE-GCa-48" style="edgeStyle=orthogonalEdgeStyle;rounded=0;orthogonalLoop=1;jettySize=auto;html=1;labelBackgroundColor=#FF3333;strokeColor=#66FFFF;fontStyle=0;fontSize=14;strokeWidth=5;" edge="1" parent="1">
          <mxGeometry relative="1" as="geometry">
            <mxPoint x="252" y="260" as="targetPoint" />
            <mxPoint x="252" y="140" as="sourcePoint" />
          </mxGeometry>
        </mxCell>
        <mxCell id="20j8uFJAiAJIcvfE-GCa-49" value="信息查询" style="edgeLabel;html=1;align=center;verticalAlign=middle;resizable=0;points=[];fontFamily=仿宋;fontSize=20;fontStyle=1" vertex="1" connectable="0" parent="20j8uFJAiAJIcvfE-GCa-48">
          <mxGeometry x="-0.1533" y="-2" relative="1" as="geometry">
            <mxPoint as="offset" />
          </mxGeometry>
        </mxCell>
        <mxCell id="20j8uFJAiAJIcvfE-GCa-23" value="钉钉、IM、短信、语音" style="rounded=1;whiteSpace=wrap;html=1;fontFamily=仿宋;fontSize=20;fontStyle=1;fillColor=#d5e8d4;strokeColor=#82b366;" vertex="1" parent="1">
          <mxGeometry x="120" y="30" width="650" height="100" as="geometry" />
        </mxCell>
        <mxCell id="20j8uFJAiAJIcvfE-GCa-24" value="数据采集" style="rounded=0;whiteSpace=wrap;html=1;fontFamily=仿宋;fontSize=20;fillColor=#dae8fc;strokeColor=#6c8ebf;fontStyle=1" vertex="1" parent="1">
          <mxGeometry x="200" y="550" width="220" height="100" as="geometry" />
        </mxCell>
        <mxCell id="20j8uFJAiAJIcvfE-GCa-26" value="发布" style="html=1;shadow=0;dashed=0;align=center;verticalAlign=middle;shape=mxgraph.arrows2.arrow;dy=0.6;dx=40;notch=0;fontFamily=仿宋;fontSize=20;fontStyle=1" vertex="1" parent="1">
          <mxGeometry x="827" y="690" width="100" height="70" as="geometry" />
        </mxCell>
        <mxCell id="20j8uFJAiAJIcvfE-GCa-27" value="推送" style="html=1;shadow=0;dashed=0;align=center;verticalAlign=middle;shape=mxgraph.arrows2.arrow;dy=0.6;dx=40;flipH=1;notch=0;fontFamily=仿宋;fontSize=20;fontStyle=1" vertex="1" parent="1">
          <mxGeometry x="820" y="360" width="100" height="70" as="geometry" />
        </mxCell>
        <mxCell id="20j8uFJAiAJIcvfE-GCa-28" value="API接口" style="whiteSpace=wrap;html=1;aspect=fixed;fontFamily=仿宋;fontSize=20;fillColor=#d5e8d4;strokeColor=#82b366;" vertex="1" parent="1">
          <mxGeometry x="157.5" y="720" width="80" height="80" as="geometry" />
        </mxCell>
        <mxCell id="20j8uFJAiAJIcvfE-GCa-29" value="动环系统" style="whiteSpace=wrap;html=1;aspect=fixed;fontFamily=仿宋;fontSize=20;fillColor=#f8cecc;strokeColor=#b85450;" vertex="1" parent="1">
          <mxGeometry x="267.5" y="720" width="80" height="80" as="geometry" />
        </mxCell>
        <mxCell id="20j8uFJAiAJIcvfE-GCa-30" value="数据爬取" style="whiteSpace=wrap;html=1;aspect=fixed;fontFamily=仿宋;fontSize=20;fillColor=#ffe6cc;strokeColor=#d79b00;" vertex="1" parent="1">
          <mxGeometry x="382.5" y="720" width="80" height="80" as="geometry" />
        </mxCell>
        <mxCell id="20j8uFJAiAJIcvfE-GCa-44" style="edgeStyle=orthogonalEdgeStyle;shape=flexArrow;rounded=0;orthogonalLoop=1;jettySize=auto;html=1;exitX=0.1;exitY=0.5;exitDx=0;exitDy=0;exitPerimeter=0;fontStyle=1" edge="1" parent="1" source="20j8uFJAiAJIcvfE-GCa-34">
          <mxGeometry relative="1" as="geometry">
            <mxPoint x="307.11764705882365" y="659.9999999999998" as="targetPoint" />
          </mxGeometry>
        </mxCell>
        <mxCell id="20j8uFJAiAJIcvfE-GCa-34" value="" style="shape=curlyBracket;whiteSpace=wrap;html=1;rounded=1;labelPosition=left;verticalLabelPosition=middle;align=right;verticalAlign=middle;rotation=90;fontStyle=1" vertex="1" parent="1">
          <mxGeometry x="297.5" y="585" width="20" height="230" as="geometry" />
        </mxCell>
        <mxCell id="20j8uFJAiAJIcvfE-GCa-35" value="" style="html=1;shadow=0;dashed=0;align=center;verticalAlign=middle;shape=mxgraph.arrows2.arrow;dy=0.6;dx=40;direction=north;notch=0;fontStyle=1" vertex="1" parent="1">
          <mxGeometry x="270" y="470" width="70" height="70" as="geometry" />
        </mxCell>
        <mxCell id="20j8uFJAiAJIcvfE-GCa-36" value="" style="rounded=0;whiteSpace=wrap;html=1;fontFamily=仿宋;fontSize=16;" vertex="1" parent="1">
          <mxGeometry x="530" y="700" width="220" height="100" as="geometry" />
        </mxCell>
        <mxCell id="20j8uFJAiAJIcvfE-GCa-38" value="MySQL" style="strokeWidth=2;html=1;shape=mxgraph.flowchart.database;whiteSpace=wrap;fontFamily=仿宋;fontSize=16;fillColor=#1ba1e2;strokeColor=#006EAF;fontColor=#ffffff;" vertex="1" parent="1">
          <mxGeometry x="560" y="710" width="60" height="80" as="geometry" />
        </mxCell>
        <mxCell id="20j8uFJAiAJIcvfE-GCa-39" value="MySQL" style="strokeWidth=2;html=1;shape=mxgraph.flowchart.database;whiteSpace=wrap;fontFamily=仿宋;fontSize=16;fillColor=#1ba1e2;fontColor=#ffffff;strokeColor=#006EAF;" vertex="1" parent="1">
          <mxGeometry x="670" y="710" width="60" height="80" as="geometry" />
        </mxCell>
        <mxCell id="20j8uFJAiAJIcvfE-GCa-56" style="edgeStyle=orthogonalEdgeStyle;shape=flexArrow;rounded=0;orthogonalLoop=1;jettySize=auto;html=1;exitX=0.5;exitY=1;exitDx=0;exitDy=0;fontStyle=1" edge="1" parent="1">
          <mxGeometry relative="1" as="geometry">
            <mxPoint x="640.0588235294117" y="693.9999999999998" as="targetPoint" />
            <mxPoint x="640" y="653.9999999999998" as="sourcePoint" />
          </mxGeometry>
        </mxCell>
        <mxCell id="20j8uFJAiAJIcvfE-GCa-42" value="数据存储" style="rounded=0;whiteSpace=wrap;html=1;fontFamily=仿宋;fontSize=20;fillColor=#f8cecc;strokeColor=#b85450;fontStyle=1" vertex="1" parent="1">
          <mxGeometry x="530" y="550" width="220" height="100" as="geometry" />
        </mxCell>
        <mxCell id="20j8uFJAiAJIcvfE-GCa-54" value="" style="html=1;shadow=0;dashed=0;align=center;verticalAlign=middle;shape=mxgraph.arrows2.arrow;dy=0.6;dx=40;direction=north;notch=0;rotation=-180;" vertex="1" parent="1">
          <mxGeometry x="600" y="480" width="70" height="70" as="geometry" />
        </mxCell>
        <mxCell id="20j8uFJAiAJIcvfE-GCa-57" style="edgeStyle=orthogonalEdgeStyle;rounded=0;orthogonalLoop=1;jettySize=auto;html=1;labelBackgroundColor=#FF3333;strokeColor=#0a11eb;fontStyle=0;fontSize=14;strokeWidth=5;" edge="1" parent="1">
          <mxGeometry relative="1" as="geometry">
            <mxPoint x="421.9117647058825" y="270" as="targetPoint" />
            <mxPoint x="421.91" y="135" as="sourcePoint" />
          </mxGeometry>
        </mxCell>
        <mxCell id="20j8uFJAiAJIcvfE-GCa-58" value="信息订阅" style="edgeLabel;html=1;align=center;verticalAlign=middle;resizable=0;points=[];fontFamily=仿宋;fontSize=20;fontStyle=1" vertex="1" connectable="0" parent="20j8uFJAiAJIcvfE-GCa-57">
          <mxGeometry x="-0.1533" y="-2" relative="1" as="geometry">
            <mxPoint as="offset" />
          </mxGeometry>
        </mxCell>
        <mxCell id="20j8uFJAiAJIcvfE-GCa-64" value="" style="group;fillColor=#f8cecc;strokeColor=#b85450;" vertex="1" connectable="0" parent="1">
          <mxGeometry x="180" y="300" width="570" height="170" as="geometry" />
        </mxCell>
        <mxCell id="20j8uFJAiAJIcvfE-GCa-21" value="" style="rounded=1;whiteSpace=wrap;html=1;fontFamily=仿宋;fontSize=18;fontStyle=1;fillColor=#fff2cc;strokeColor=#d6b656;" vertex="1" parent="20j8uFJAiAJIcvfE-GCa-64">
          <mxGeometry width="570" height="170" as="geometry" />
        </mxCell>
        <mxCell id="20j8uFJAiAJIcvfE-GCa-63" value="" style="group" vertex="1" connectable="0" parent="20j8uFJAiAJIcvfE-GCa-64">
          <mxGeometry x="19" y="20" width="530" height="130" as="geometry" />
        </mxCell>
        <mxCell id="20j8uFJAiAJIcvfE-GCa-40" value="数据处理" style="rounded=0;whiteSpace=wrap;html=1;fontFamily=仿宋;fontSize=18;fontColor=#333333;fontStyle=1;fillColor=#f5f5f5;strokeColor=#666666;" vertex="1" parent="20j8uFJAiAJIcvfE-GCa-63">
          <mxGeometry width="120" height="60" as="geometry" />
        </mxCell>
        <mxCell id="20j8uFJAiAJIcvfE-GCa-41" value="消息发布" style="rounded=0;whiteSpace=wrap;html=1;fontFamily=仿宋;fontSize=18;fontStyle=1;fillColor=#ffe6cc;strokeColor=#d79b00;" vertex="1" parent="20j8uFJAiAJIcvfE-GCa-63">
          <mxGeometry y="70" width="120" height="60" as="geometry" />
        </mxCell>
        <mxCell id="20j8uFJAiAJIcvfE-GCa-45" value="预警分类" style="rounded=0;whiteSpace=wrap;html=1;fontFamily=仿宋;fontSize=18;fontStyle=1;fillColor=#f8cecc;strokeColor=#b85450;" vertex="1" parent="20j8uFJAiAJIcvfE-GCa-63">
          <mxGeometry x="410" width="120" height="60" as="geometry" />
        </mxCell>
        <mxCell id="20j8uFJAiAJIcvfE-GCa-46" value="人员管理" style="rounded=0;whiteSpace=wrap;html=1;fontFamily=仿宋;fontSize=18;fontStyle=1;fillColor=#fff2cc;strokeColor=#d6b656;" vertex="1" parent="20j8uFJAiAJIcvfE-GCa-63">
          <mxGeometry x="410" y="70" width="120" height="60" as="geometry" />
        </mxCell>
        <mxCell id="20j8uFJAiAJIcvfE-GCa-47" value="站房信息" style="rounded=0;whiteSpace=wrap;html=1;fontFamily=仿宋;fontSize=18;fontStyle=1;fillColor=#dae8fc;strokeColor=#6c8ebf;" vertex="1" parent="20j8uFJAiAJIcvfE-GCa-63">
          <mxGeometry x="144" width="120" height="60" as="geometry" />
        </mxCell>
        <mxCell id="20j8uFJAiAJIcvfE-GCa-53" value="订阅管理" style="rounded=0;whiteSpace=wrap;html=1;fontFamily=仿宋;fontSize=18;fontStyle=1;fillColor=#d5e8d4;strokeColor=#82b366;" vertex="1" parent="20j8uFJAiAJIcvfE-GCa-63">
          <mxGeometry x="280" width="120" height="60" as="geometry" />
        </mxCell>
        <mxCell id="20j8uFJAiAJIcvfE-GCa-59" value="信息查询" style="rounded=0;whiteSpace=wrap;html=1;fontFamily=仿宋;fontSize=18;fontStyle=1;fillColor=#e1d5e7;strokeColor=#9673a6;" vertex="1" parent="20j8uFJAiAJIcvfE-GCa-63">
          <mxGeometry x="144" y="70" width="120" height="60" as="geometry" />
        </mxCell>
        <mxCell id="20j8uFJAiAJIcvfE-GCa-60" value="平台集成" style="rounded=0;whiteSpace=wrap;html=1;fontFamily=仿宋;fontSize=18;fontStyle=1;fillColor=#dae8fc;strokeColor=#6c8ebf;" vertex="1" parent="20j8uFJAiAJIcvfE-GCa-63">
          <mxGeometry x="280" y="70" width="120" height="60" as="geometry" />
        </mxCell>
        <mxCell id="20j8uFJAiAJIcvfE-GCa-65" value="CoentOS" style="rounded=0;whiteSpace=wrap;html=1;fontFamily=仿宋;fontSize=18;fontStyle=1;align=center;horizontal=1;labelPosition=center;verticalLabelPosition=top;verticalAlign=bottom;fillColor=#b1ddf0;strokeColor=#10739e;" vertex="1" parent="1">
          <mxGeometry x="130" y="880" width="940" height="160" as="geometry" />
        </mxCell>
        <mxCell id="20j8uFJAiAJIcvfE-GCa-66" value="Docker" style="rounded=0;whiteSpace=wrap;html=1;fontFamily=仿宋;fontSize=18;fontStyle=1" vertex="1" parent="1">
          <mxGeometry x="157.5" y="930" width="120" height="60" as="geometry" />
        </mxCell>
        <mxCell id="20j8uFJAiAJIcvfE-GCa-67" value="Nginx" style="rounded=0;whiteSpace=wrap;html=1;fontFamily=仿宋;fontSize=18;fontStyle=1" vertex="1" parent="1">
          <mxGeometry x="330" y="930" width="120" height="60" as="geometry" />
        </mxCell>
        <mxCell id="20j8uFJAiAJIcvfE-GCa-68" value="JDK" style="rounded=0;whiteSpace=wrap;html=1;fontFamily=仿宋;fontSize=18;fontStyle=1" vertex="1" parent="1">
          <mxGeometry x="707" y="930" width="120" height="60" as="geometry" />
        </mxCell>
        <mxCell id="20j8uFJAiAJIcvfE-GCa-69" value="Python" style="rounded=0;whiteSpace=wrap;html=1;fontFamily=仿宋;fontSize=18;fontStyle=1" vertex="1" parent="1">
          <mxGeometry x="890" y="930" width="120" height="60" as="geometry" />
        </mxCell>
        <mxCell id="20j8uFJAiAJIcvfE-GCa-70" value="RocketMQ" style="rounded=0;whiteSpace=wrap;html=1;fontFamily=仿宋;fontSize=18;fontStyle=1" vertex="1" parent="1">
          <mxGeometry x="510" y="930" width="120" height="60" as="geometry" />
        </mxCell>
      </root>
    </mxGraphModel>
  </diagram>
</mxfile>
